# xmcd CD database file
#
# Track frame offsets:
#	150
#	9045
#	18875
#	31070
#	37702
#	51255
#	67757
#	85235
#	101612
#	112977
#	126385
#	137467
#	154495
#	168355
#	186095
#	203222
#
# Disc length: 2786 seconds
#
# Revision: 7
# Processed by: cddbd v1.5.2PL0 Copyright (c) Steve Scherf et al.
# Submitted via: CDex 1.70beta3
#
DISCID=bd0ae010
DTITLE=入江純 - 赤い光弾ジリオン・WHITE NUTS
DYEAR=1987
DGENRE=Anime(J)
TTITLE0=序章<A-7>
TTITLE1=結城梨沙/ピュアストーン(TVサイズ)
TTITLE2=関俊彦・井上和彦・水谷優子/STAGE1「Time Of No Tention」
TTITLE3=エイミーとアップル<C-11>
TTITLE4=最前線<A-5>
TTITLE5=関俊彦・井上和彦・水谷優子・西村智博/STAGE2「A Happning In The Sky」
TTITLE6=やさしい目覚めを<A-16,D-6>
TTITLE7=水谷優子/ラブソングはうまくない
TTITLE8=関俊彦・他/STAGE3「Hot Fighting!」
TTITLE9=リックス総攻撃<C-4,C-5>
TTITLE10=不屈のホワイトナッツ<A-15,C-12>
TTITLE11=水谷優子/Catch Me!
TTITLE12=宿命の対決<C-5,C-6,C-7,T-2>
TTITLE13=マリスの曙<D-3>
TTITLE14=関俊彦・井上和彦・水谷優子/STAGE4「After The Battlement」
TTITLE15=結城梨沙/Push!(TVサイズ)
EXTD=YEAR: 1987
EXTT0=
EXTT1=
EXTT2=
EXTT3=
EXTT4=
EXTT5=
EXTT6=
EXTT7=
EXTT8=
EXTT9=
EXTT10=
EXTT11=
EXTT12=
EXTT13=
EXTT14=
EXTT15=
PLAYORDER=
